<svg width="256" height="256" viewBox="0 0 256 256" fill="none" xmlns="http://www.w3.org/2000/svg">
  <!-- 背景圆形 -->
  <circle cx="128" cy="128" r="120" fill="#667eea" stroke="#764ba2" stroke-width="4"/>
  
  <!-- 羽毛球拍 -->
  <g transform="translate(128, 128)">
    <!-- 拍柄 -->
    <rect x="-4" y="40" width="8" height="60" rx="4" fill="#8B4513"/>
    
    <!-- 拍头外框 -->
    <ellipse cx="0" cy="-10" rx="35" ry="45" fill="none" stroke="#2C3E50" stroke-width="3"/>
    
    <!-- 网线 - 竖线 -->
    <line x1="-25" y1="-40" x2="-25" y2="20" stroke="#E8E8E8" stroke-width="1"/>
    <line x1="-15" y1="-45" x2="-15" y2="25" stroke="#E8E8E8" stroke-width="1"/>
    <line x1="-5" y1="-50" x2="-5" y2="30" stroke="#E8E8E8" stroke-width="1"/>
    <line x1="5" y1="-50" x2="5" y2="30" stroke="#E8E8E8" stroke-width="1"/>
    <line x1="15" y1="-45" x2="15" y2="25" stroke="#E8E8E8" stroke-width="1"/>
    <line x1="25" y1="-40" x2="25" y2="20" stroke="#E8E8E8" stroke-width="1"/>
    
    <!-- 网线 - 横线 -->
    <line x1="-30" y1="-30" x2="30" y2="-30" stroke="#E8E8E8" stroke-width="1"/>
    <line x1="-32" y1="-20" x2="32" y2="-20" stroke="#E8E8E8" stroke-width="1"/>
    <line x1="-34" y1="-10" x2="34" y2="-10" stroke="#E8E8E8" stroke-width="1"/>
    <line x1="-34" y1="0" x2="34" y2="0" stroke="#E8E8E8" stroke-width="1"/>
    <line x1="-32" y1="10" x2="32" y2="10" stroke="#E8E8E8" stroke-width="1"/>
    <line x1="-30" y1="20" x2="30" y2="20" stroke="#E8E8E8" stroke-width="1"/>
    
    <!-- 羽毛球 -->
    <g transform="translate(50, -60)">
      <!-- 球体 -->
      <circle cx="0" cy="0" r="8" fill="#FFFFFF" stroke="#D0D0D0" stroke-width="1"/>
      <!-- 羽毛 -->
      <path d="M 0,-8 L -3,-18 L 0,-20 L 3,-18 Z" fill="#F0F0F0" stroke="#D0D0D0" stroke-width="0.5"/>
      <path d="M -3,-8 L -6,-18 L -3,-20 L 0,-18 Z" fill="#F0F0F0" stroke="#D0D0D0" stroke-width="0.5"/>
      <path d="M 3,-8 L 6,-18 L 3,-20 L 0,-18 Z" fill="#F0F0F0" stroke="#D0D0D0" stroke-width="0.5"/>
    </g>
  </g>
  
  <!-- 装饰性文字 -->
  <text x="128" y="220" text-anchor="middle" font-family="Arial, sans-serif" font-size="16" font-weight="bold" fill="#FFFFFF">羽毛球预订</text>
</svg>